#!OML:ASF F:\VICON\USERDATA\INSTALL\rory3\rory3.ASF
:FULLY-SPECIFIED
:DEGREES
1
root 1.43632 17.2428 34.2845 -158.484 -53.4529 -174.315
lowerback -17.5157 5.28259 -1.61821
upperback -10.535 6.15181 -1.0261
thorax -1.57035 2.68467 0.792751
lowerneck -12.2781 1.90964 2.19365
upperneck 31.0157 0.0916882 2.82162
head 12.2728 0.206776 0.602242
rclavicle 5.31997e-014 6.08281e-014
rhumerus -54.0003 -29.9524 -48.6592
rradius 9.643
rwrist 25.2058
rhand -4.23621 15.7568
rfingers 7.12502
rthumb 21.5271 -13.0668
lclavicle 5.31997e-014 6.08281e-014
lhumerus -54.6554 28.1124 53.7544
lradius 28.4127
lwrist -2.03878
lhand 0.626899 19.041
lfingers 7.12502
lthumb 26.1907 47.2541
rfemur -13.6481 -5.28411 32.5357
rtibia 35.3681
rfoot 39.0625 -22.2825
rtoes 25.0015
lfemur -38.1922 3.11254 -29.3069
ltibia 30.9635
lfoot -41.4974 28.0177
ltoes 22.2363
2
root 1.43603 17.2362 34.2875 -158.684 -53.5347 -174.159
lowerback -17.467 5.23107 -1.52253
upperback -10.5215 6.07179 -0.92594
thorax -1.57902 2.64436 0.82933
lowerneck -12.4019 1.96637 1.93676
upperneck 31.1109 0.189045 2.95885
head 12.3338 0.238804 0.714298
rclavicle 1.14301e-015 -1.15295e-014
rhumerus -53.8133 -29.8971 -48.7731
rradius 9.87104
rwrist 24.0348
rhand -2.72777 15.225
rfingers 7.12502
rthumb 22.9752 -13.4259
lclavicle 1.14301e-015 -1.15295e-014
lhumerus -54.9492 28.324 53.5408
lradius 28.135
lwrist -2.4027
lhand 0.854174 18.9592
lfingers 7.12502
lthumb 26.4083 47.1398
rfemur -13.5317 -5.65609 32.6247
rtibia 35.3151
rfoot 39.3845 -21.6925
rtoes 24.453
lfemur -38.224 3.10513 -29.188
ltibia 31.1877
lfoot -41.6662 27.7359
ltoes 22.6958
3
root 1.43546 17.2358 34.2892 -158.697 -53.5412 -174.167
lowerback -17.4471 5.21515 -1.53152
upperback -10.5467 6.04824 -0.91881
thorax -1.61783 2.63226 0.835285
lowerneck -12.5119 1.97906 1.87283
upperneck 31.2521 0.179065 3.04542
head 12.4142 0.236912 0.758764
rclavicle -1.1045e-014 -3.8763e-014
rhumerus -53.8634 -29.9042 -48.8422
rradius 9.88154
rwrist 23.7111
rhand -2.40673 15.2382
rfingers 7.12502
rthumb 23.2832 -13.374
lclavicle -1.1045e-014 -3.8763e-014
lhumerus -55.095 28.174 53.6003
lradius 27.9782
lwrist -2.46649
lhand 0.812228 18.9688
lfingers 7.12502
lthumb 26.3681 47.1555
rfemur -13.5474 -5.8038 32.6094
rtibia 35.3696
rfoot 39.4176 -21.5813
rtoes 24.3694
lfemur -38.1943 3.01507 -29.156
ltibia 31.176
lfoot -41.6384 27.8325
ltoes 22.4555
4
root 1.43674 17.2381 34.289 -158.595 -53.5104 -174.278
lowerback -17.4718 5.19771 -1.63412
upperback -10.5647 6.0363 -0.943658
thorax -1.63325 2.62896 0.864878
lowerneck -12.6455 1.99488 1.84054
upperneck 31.3695 0.166671 3.1386
head 12.4907 0.239838 0.800298
rclavicle -5.643e-014 -1.96797e-014
rhumerus -54.153 -29.8412 -48.8271
rradius 9.6921
rwrist 25.1248
rhand -4.35845 15.8261
rfingers 7.12502
rthumb 21.4097 -13.011
lclavicle -5.643e-014 -1.96797e-014
lhumerus -55.2732 28.2837 53.3753
lradius 27.7814
lwrist -2.74882
lhand 0.972525 19.0653
lfingers 7.12502
lthumb 26.5215 47.2289
rfemur -13.6116 -5.73053 32.5246
rtibia 35.3753
rfoot 39.4883 -21.6223
rtoes 24.1371
lfemur -38.2491 3.03391 -29.2452
ltibia 31.2276
lfoot -41.4765 28.0317
ltoes 21.8468
5
root 1.43788 17.2396 34.2879 -158.691 -53.5293 -174.222
lowerback -17.5338 5.12699 -1.68431
upperback -10.4799 5.9602 -0.860052
thorax -1.52263 2.59801 0.977085
lowerneck -12.7855 2.0358 1.86251
upperneck 31.3745 0.250006 3.0594
head 12.5215 0.273515 0.779959
rclavicle 8.13154e-014 1.96797e-014
rhumerus -53.8804 -29.8619 -49.0032
rradius 9.73453
rwrist 24.7627
rhand -4.27575 15.6128
rfingers 7.12502
rthumb 21.4891 -13.2153
lclavicle 8.13154e-014 1.96797e-014
lhumerus -55.5041 28.7212 52.9906
lradius 27.6129
lwrist -3.20352
lhand 1.11233 18.9886
lfingers 7.12502
lthumb 26.6554 47.1318
rfemur -13.5854 -5.69268 32.5621
rtibia 35.3739
rfoot 39.5527 -21.5589
rtoes 24.0615
lfemur -38.1978 2.92992 -29.1578
ltibia 31.243
lfoot -41.5354 28.2432
ltoes 21.3883
6
root 1.43775 17.2407 34.2892 -158.835 -53.6104 -174.067
lowerback -17.526 5.10093 -1.60751
upperback -10.5224 5.90775 -0.811727
thorax -1.56793 2.56769 0.97474
lowerneck -12.6785 2.04339 1.94952
upperneck 31.3423 0.280471 2.93606
head 12.4862 0.279423 0.720578
rclavicle -1.68594e-014 2.16675e-014
rhumerus -53.9487 -29.754 -49.002
rradius 9.79102
rwrist 24.4681
rhand -4.49086 15.6392
rfingers 7.12502
rthumb 21.2825 -13.2123
lclavicle -1.68594e-014 2.16675e-014
lhumerus -55.6779 28.6188 52.8784
lradius 27.5017
lwrist -3.01163
lhand 1.00482 19.0569
lfingers 7.12502
lthumb 26.5525 47.2158
rfemur -13.5543 -5.74096 32.678
rtibia 35.3451
rfoot 39.5891 -21.4827
rtoes 24.0191
lfemur -38.1844 3.01718 -29.0822
ltibia 31.2585
lfoot -41.1108 28.4329
ltoes 20.7037
7
root 1.43663 17.24 34.2943 -158.829 -53.6535 -174.05
lowerback -17.5068 5.11579 -1.50182
upperback -10.5825 5.90413 -0.855487
thorax -1.62605 2.55701 0.866299
lowerneck -12.7374 2.03071 1.90745
upperneck 31.461 0.233203 3.00985
head 12.5477 0.260812 0.750465
rclavicle 1.1368e-014 -1.39149e-014
rhumerus -54.0866 -29.7829 -49.0519
rradius 9.86264
rwrist 24.3078
rhand -4.70179 15.5442
rfingers 7.12502
rthumb 21.0799 -13.33
lclavicle 1.1368e-014 -1.39149e-014
lhumerus -55.7822 28.4685 52.782
lradius 27.4226
lwrist -2.73003
lhand 0.920936 19.0793
lfingers 7.12502
lthumb 26.4722 47.2503
rfemur -13.5449 -5.83774 32.6829
rtibia 35.2853
rfoot 39.6666 -21.3932
rtoes 23.9588
lfemur -38.204 2.99788 -29.0781
ltibia 31.2544
lfoot -41.0779 28.3489
ltoes 21.0373
